PathFileType	4	(X/Y/Z)	C:\Users\86182\Documents\cortex\Trimmed_M4_H13.trc
DataRate	CameraRate	NumFrames	NumMarkers	Units	OrigDataRate	OrigDataStartFrame	OrigNumFrames
100.00	100.00	       70	2	mm	100.00	181	       901
Frame#	Time	gripper			box			
		X1	Y1	Z1	X2	Y2	Z2	

181	1.800	277.85760	150.09624	228.40060	279.77469	146.90923	93.19182	
182	1.810	277.51160	150.19084	228.97580	279.75031	146.93076	93.64293	
183	1.820	277.19522	150.28227	229.53824	279.72302	146.95955	94.09593	
184	1.830	276.93970	150.36296	230.07289	279.68762	146.99297	94.54889	
185	1.840	276.75293	150.42972	230.57486	279.64389	147.02788	94.99895	
186	1.850	276.62845	150.48174	231.04654	279.59821	147.06245	95.44237	
187	1.860	276.55243	150.51959	231.49358	279.55930	147.09427	95.87495	
188	1.870	276.51035	150.54491	231.92215	279.53442	147.11847	96.29179	
189	1.880	276.49075	150.55975	232.33798	279.52979	147.12994	96.68791	
190	1.890	276.48462	150.56639	232.74570	279.55258	147.12776	97.06105	
191	1.900	276.48529	150.56758	233.14861	279.60913	147.11612	97.41360	
192	1.910	276.49002	150.56612	233.54965	279.69913	147.10115	97.75319	
193	1.920	276.49951	150.56410	233.95184	279.80911	147.08760	98.09243	
194	1.930	276.51431	150.56284	234.35779	279.90665	147.07909	98.44981	
195	1.940	276.53253	150.56296	234.76964	279.94775	147.08009	98.84743	
196	1.950	276.55103	150.56483	235.18979	279.91071	147.09366	99.29689	
197	1.960	276.56805	150.56903	235.62015	279.81726	147.11833	99.78809	
198	1.970	276.58411	150.57645	236.06050	279.70819	147.15062	100.30005	
199	1.980	276.60046	150.58780	236.50864	279.61249	147.18777	100.81622	
200	1.990	276.61719	150.60330	236.96169	279.54385	147.22719	101.32624	
201	2.000	276.63382	150.62303	237.41664	279.50720	147.26566	101.82289	
202	2.010	276.64996	150.64706	237.87106	279.50244	147.30003	102.30194	
203	2.020	276.66467	150.67490	238.32401	279.52658	147.32834	102.76182	
204	2.030	276.67609	150.70503	238.77515	279.57492	147.35071	103.20100	
205	2.040	276.68234	150.73517	239.22324	279.64191	147.36874	103.61644	
206	2.050	276.68253	150.76314	239.66647	279.72015	147.38376	104.00739	
207	2.060	276.67645	150.78770	240.10347	279.79721	147.39670	104.38123	
208	2.070	276.66437	150.80865	240.53314	279.84875	147.40982	104.75635	
209	2.080	276.64755	150.82619	240.95517	279.84305	147.42731	105.15570	
210	2.090	276.62766	150.84050	241.37125	279.76938	147.45117	105.58847	
211	2.100	276.60583	150.85190	241.78519	279.65845	147.47739	106.03897	
212	2.110	276.58334	150.86066	242.20052	279.56085	147.49863	106.48004	
213	2.120	276.56284	150.86638	242.61873	279.51794	147.50859	106.89157	
214	2.130	276.54697	150.86751	243.03992	279.55521	147.50323	107.26567	
215	2.140	276.53641	150.86278	243.46400	279.68109	147.48177	107.60528	
216	2.150	276.53027	150.85313	243.89156	279.87845	147.44836	107.92337	
217	2.160	276.52783	150.84152	244.32375	280.09470	147.41286	108.24518	
218	2.170	276.52872	150.83015	244.76068	280.24814	147.38904	108.60858	
219	2.180	276.53198	150.81874	245.20010	280.27115	147.38741	109.04651	
220	2.190	276.53558	150.80550	245.63979	280.16290	147.40750	109.55911	
221	2.200	276.53629	150.78976	246.07951	279.98514	147.43973	110.11215	
222	2.210	276.53021	150.77264	246.51929	279.80789	147.47316	110.66357	
223	2.220	276.51453	150.75476	246.95746	279.67587	147.49965	111.18327	
224	2.230	276.48898	150.73509	247.39188	279.61115	147.51401	111.65514	
225	2.240	276.45529	150.71277	247.82147	279.62195	147.51399	112.07454	
226	2.250	276.41516	150.68913	248.24640	279.70374	147.50015	112.44705	
227	2.260	276.36990	150.66745	248.66742	279.83710	147.47539	112.78596	
228	2.270	276.32202	150.65096	249.08513	279.98456	147.44543	113.11037	
229	2.280	276.27548	150.64066	249.49905	280.09885	147.41838	113.44203	
230	2.290	276.23450	150.63477	249.90854	280.15546	147.39949	113.79393	
231	2.300	276.20300	150.63051	250.31491	280.17044	147.38757	114.16396	
232	2.310	276.18362	150.62708	250.72171	280.16580	147.38045	114.54964	
233	2.320	276.17548	150.62613	251.13228	280.13837	147.37993	114.95862	
234	2.330	276.17401	150.62909	251.54843	280.08582	147.38693	115.39230	
235	2.340	276.17538	150.63518	251.97064	280.03497	147.39709	115.83360	
236	2.350	276.17941	150.64243	252.39908	280.01801	147.40515	116.26421	
237	2.360	276.18845	150.64928	252.83379	280.03461	147.41063	116.68604	
238	2.370	276.20377	150.65509	253.27429	280.05280	147.41696	117.11840	
239	2.380	276.22311	150.65994	253.71851	280.04892	147.42584	117.57277	
240	2.390	276.24197	150.66426	254.16228	280.03470	147.43449	118.03754	
241	2.400	276.25732	150.66832	254.60172	280.03018	147.44029	118.49565	
242	2.410	276.26892	150.67259	255.03645	280.02542	147.44592	118.94914	
243	2.420	276.27783	150.67783	255.46878	279.98285	147.45926	119.41791	
244	2.430	276.28424	150.68504	255.89967	279.87802	147.48642	119.91457	
245	2.440	276.28693	150.69492	256.32797	279.72687	147.52505	120.42793	
246	2.450	276.28452	150.70691	256.75287	279.56454	147.56665	120.93632	
247	2.460	276.27725	150.71950	257.17511	279.41675	147.60406	121.42598	
248	2.470	276.26862	150.73116	257.59604	279.29663	147.63464	121.89406	
249	2.480	276.26328	150.74071	258.01617	279.20917	147.65753	122.34415	
250	2.490	276.26288	150.74765	258.43491	279.15176	147.67107	122.78201	
